<?xml version="1.0" encoding="UTF-8"?>
<svg width="206px" height="53px" viewBox="0 0 206 53" version="1.1" xmlns="http://www.w3.org/2000/svg" xmlns:xlink="http://www.w3.org/1999/xlink">
    <title>button02</title>
    <defs>
        <linearGradient x1="50%" y1="0%" x2="50%" y2="100%" id="linearGradient-1">
            <stop stop-color="#FD7523" offset="0%"></stop>
            <stop stop-color="#EB4000" offset="100%"></stop>
        </linearGradient>
        <linearGradient x1="50%" y1="0%" x2="50%" y2="100%" id="linearGradient-2">
            <stop stop-color="#FEAD71" offset="0%"></stop>
            <stop stop-color="#FFC27E" offset="100%"></stop>
        </linearGradient>
    </defs>
    <g id="页面-1" stroke="none" stroke-width="1" fill="none" fill-rule="evenodd">
        <g id="年终盘点01" transform="translate(-989.000000, -972.000000)">
            <g id="button02" transform="translate(992.000000, 975.000000)">
                <path d="M178.16568,0 C183.688528,-2.79088747e-15 188.16568,4.4771525 188.16568,10 L188.165,11.834 L190,11.8343195 C195.522847,11.8343195 200,16.311472 200,21.8343195 L200,25.5029586 C200,31.0258061 195.522847,35.5029586 190,35.5029586 L188.107325,35.5021833 C187.513928,41.4828185 182.468133,46.1538462 176.331361,46.1538462 L22.4852071,46.1538462 C16.3484353,46.1538462 11.3026405,41.4828185 10.7092429,35.5021833 L10,35.5029586 C4.4771525,35.5029586 0,31.0258061 0,25.5029586 L0,21.8343195 C0,16.311472 4.4771525,11.8343195 10,11.8343195 L10.65,11.834 L10.6508876,10 C10.6508876,4.4771525 15.1280401,-7.61826213e-16 20.6508876,0 L178.16568,0 Z" id="形状结合" stroke="#CA4950" stroke-width="6" fill="url(#linearGradient-1)"></path>
                <path d="M178.16568,1.5 C180.512891,1.5 182.637891,2.45139491 184.176088,3.98959236 C185.714286,5.52778981 186.66568,7.65278981 186.665681,9.99944345 L186.665681,9.99944345 L186.664443,13.3337388 L190,13.3343195 C192.34721,13.3343195 194.47221,14.2857144 196.010408,15.8239119 C197.548605,17.3621093 198.5,19.4871093 198.5,21.8343195 L198.5,21.8343195 L198.5,25.5029586 C198.5,27.8501688 197.548605,29.9751688 196.010408,31.5133662 C194.47221,33.0515637 192.34721,34.0029586 190.000614,34.0029587 L190.000614,34.0029587 L186.660696,34.0015906 C186.756739,37.1702902 185.424399,40.0295006 183.261147,41.9862171 C181.428119,43.6442388 178.997616,44.6538462 176.331361,44.6538462 L176.331361,44.6538462 L22.4852071,44.6538462 C19.8189519,44.6538462 17.3884493,43.6442388 15.5554206,41.9862171 C13.3919437,40.0292966 12.0595516,37.1696939 12.1559025,34.0005993 L12.1559025,34.0005993 L10,34.0029586 C7.65278981,34.0029586 5.52778981,33.0515637 3.98959236,31.5133662 C2.45139491,29.9751688 1.5,27.8501688 1.5,25.5029586 L1.5,25.5029586 L1.5,21.8343195 C1.5,19.4871093 2.45139491,17.3621093 3.98959236,15.8239119 C5.52778981,14.2857144 7.65278981,13.3343195 10.0007374,13.3343193 L10.0007374,13.3343193 L12.1492747,13.3332632 L12.1508876,10 C12.1508876,7.65278981 13.1022825,5.52778981 14.6404799,3.98959236 C16.1786774,2.45139491 18.3036774,1.5 20.6508876,1.5 L20.6508876,1.5 Z" id="形状结合" stroke="url(#linearGradient-2)" stroke-width="3"></path>
            </g>
        </g>
    </g>
</svg>