<?xml version="1.0" encoding="UTF-8"?>
<svg width="82px" height="82px" viewBox="0 0 82 82" version="1.1" xmlns="http://www.w3.org/2000/svg" xmlns:xlink="http://www.w3.org/1999/xlink">
    <title>圆</title>
    <defs>
        <linearGradient x1="50%" y1="0%" x2="50%" y2="100%" id="linearGradient-1">
            <stop stop-color="#F5995D" offset="0%"></stop>
            <stop stop-color="#E96F5B" offset="100%"></stop>
        </linearGradient>
    </defs>
    <g id="页面-1" stroke="none" stroke-width="1" fill="none" fill-rule="evenodd">
        <g id="年终盘点02" transform="translate(-1487.000000, -307.000000)">
            <g id="圆" transform="translate(1489.000000, 309.000000)">
                <circle id="椭圆形" stroke="#CA4950" stroke-width="4" fill="url(#linearGradient-1)" cx="39" cy="39" r="39"></circle>
                <g id="线" transform="translate(39.000000, 39.235702) rotate(45.000000) translate(-39.000000, -39.235702) translate(13.500000, 13.735702)" opacity="0.500139509" stroke="#FFCB94" stroke-width="2">
                    <polygon id="矩形" transform="translate(25.333333, 25.333333) rotate(90.000000) translate(-25.333333, -25.333333) " points="1.4208666e-11 1.51885911e-11 50.6666667 1.51885911e-11 50.6666667 50.6666667 1.4208666e-11 50.6666667"></polygon>
                    <polygon id="矩形" transform="translate(2.666667, 2.666667) rotate(90.000000) translate(-2.666667, -2.666667) " points="1.78042989e-11 1.83003242e-11 5.33333333 1.83003242e-11 5.33333333 5.33333333 1.78042989e-11 5.33333333"></polygon>
                    <polygon id="矩形" transform="translate(8.000000, 2.666667) rotate(90.000000) translate(-8.000000, -2.666667) " points="5.33333333 1.49606253e-11 10.6666667 1.49606253e-11 10.6666667 5.33333333 5.33333333 5.33333333"></polygon>
                    <polygon id="矩形" transform="translate(2.666667, 8.000000) rotate(90.000000) translate(-2.666667, -8.000000) " points="5.68434189e-14 5.33333333 5.33333333 5.33333333 5.33333333 10.6666667 5.68434189e-14 10.6666667"></polygon>
                    <polygon id="矩形" transform="translate(48.000000, 48.000000) rotate(90.000000) translate(-48.000000, -48.000000) " points="45.3333333 45.3333333 50.6666667 45.3333333 50.6666667 50.6666667 45.3333333 50.6666667"></polygon>
                    <polygon id="矩形" transform="translate(48.000000, 42.666667) rotate(90.000000) translate(-48.000000, -42.666667) " points="45.3333333 40 50.6666667 40 50.6666667 45.3333333 45.3333333 45.3333333"></polygon>
                    <polygon id="矩形" transform="translate(42.666667, 48.000000) rotate(90.000000) translate(-42.666667, -48.000000) " points="40 45.3333333 45.3333333 45.3333333 45.3333333 50.6666667 40 50.6666667"></polygon>
                    <polygon id="矩形" transform="translate(8.000000, 48.000000) rotate(90.000000) translate(-8.000000, -48.000000) " points="5.33333333 45.3333333 10.6666667 45.3333333 10.6666667 50.6666667 5.33333333 50.6666667"></polygon>
                    <polygon id="矩形" transform="translate(2.666667, 42.666667) rotate(90.000000) translate(-2.666667, -42.666667) " points="1.58183096e-11 40 5.33333333 40 5.33333333 45.3333333 1.58183096e-11 45.3333333"></polygon>
                    <polygon id="矩形" transform="translate(2.666667, 48.000000) rotate(90.000000) translate(-2.666667, -48.000000) " points="8.21565038e-14 45.3333333 5.33333333 45.3333333 5.33333333 50.6666667 8.21565038e-14 50.6666667"></polygon>
                    <polygon id="矩形" transform="translate(48.000000, 8.000000) rotate(90.000000) translate(-48.000000, -8.000000) " points="45.3333333 5.33333333 50.6666667 5.33333333 50.6666667 10.6666667 45.3333333 10.6666667"></polygon>
                    <polygon id="矩形" transform="translate(48.000000, 2.666667) rotate(90.000000) translate(-48.000000, -2.666667) " points="45.3333333 1.56511841e-11 50.6666667 1.56511841e-11 50.6666667 5.33333333 45.3333333 5.33333333"></polygon>
                    <polygon id="矩形" transform="translate(42.666667, 2.666667) rotate(90.000000) translate(-42.666667, -2.666667) " points="40 1.48685508e-11 45.3333333 1.48685508e-11 45.3333333 5.33333333 40 5.33333333"></polygon>
                </g>
            </g>
        </g>
    </g>
</svg>