<?xml version="1.0" encoding="UTF-8"?>
<svg width="144px" height="232px" viewBox="0 0 144 232" version="1.1" xmlns="http://www.w3.org/2000/svg" xmlns:xlink="http://www.w3.org/1999/xlink">
    <title>灯笼</title>
    <defs>
        <linearGradient x1="50%" y1="0%" x2="50%" y2="100%" id="linearGradient-1">
            <stop stop-color="#F5995D" offset="0%"></stop>
            <stop stop-color="#E96F5B" offset="100%"></stop>
        </linearGradient>
        <linearGradient x1="50%" y1="27.3196509%" x2="50%" y2="113.209982%" id="linearGradient-2">
            <stop stop-color="#E25F52" offset="0%"></stop>
            <stop stop-color="#DE314A" offset="100%"></stop>
        </linearGradient>
        <linearGradient x1="50%" y1="27.3196509%" x2="50%" y2="113.209982%" id="linearGradient-3">
            <stop stop-color="#E25F52" offset="0%"></stop>
            <stop stop-color="#DE314A" offset="100%"></stop>
        </linearGradient>
        <radialGradient cx="50%" cy="50%" fx="50%" fy="50%" r="70.2333138%" gradientTransform="translate(0.500000,0.500000),scale(1.000000,0.900000),rotate(90.000000),scale(1.000000,0.953238),translate(-0.500000,-0.500000)" id="radialGradient-4">
            <stop stop-color="#FB6B60" offset="0%"></stop>
            <stop stop-color="#F8645D" offset="31.6761364%"></stop>
            <stop stop-color="#DE314A" offset="100%"></stop>
        </radialGradient>
        <linearGradient x1="50%" y1="0%" x2="50%" y2="100%" id="linearGradient-5">
            <stop stop-color="#FD8164" offset="0%"></stop>
            <stop stop-color="#F08057" offset="100%"></stop>
        </linearGradient>
    </defs>
    <g id="页面-1" stroke="none" stroke-width="1" fill="none" fill-rule="evenodd">
        <g id="年终盘点01" transform="translate(-347.000000, 0.000000)">
            <g id="灯笼" transform="translate(349.000000, 0.000000)">
                <path d="M120.290323,53 C125.81317,53 130.290323,57.4771525 130.290323,63 C135.679231,63.1580977 140,67.574464 140,73 L140,173 C140,178.425536 135.679231,182.841902 130.290942,182.995849 L130.290323,183.370968 C130.088346,188.722029 125.688921,193 120.290323,193 L20.2903226,193 C14.891724,193 10.4922991,188.722029 10.2970815,183.37112 L10.2903226,183.370968 L10.2909417,182.995849 C10.1942983,182.99861 10.0973115,183 10,183 C4.4771525,183 3.55271368e-15,178.522847 3.55271368e-15,173 L-3.55271368e-15,73 C-3.55271368e-15,67.4771525 4.4771525,63 10,63 C10.0973115,63 10.1942983,63.00139 10.2909417,63.0041511 L10.2903226,63 C10.2903226,57.4771525 14.7674751,53 20.2903226,53 L120.290323,53 Z" id="形状结合" stroke="#CA4950" stroke-width="3" fill="url(#linearGradient-1)"></path>
                <path d="M73.1967596,193.062143 L77.6442785,193.84636 C74.5324588,200.233339 74.8427918,206.050518 78.5752776,211.297896 C82.3077635,216.545275 84.7033294,222.714294 85.7619756,229.804952 L63.1078444,225.901002 C59.2560238,220.652326 58.7307901,214.418915 61.5321433,207.200768 C63.0841199,203.201845 66.9723253,198.48897 73.1967596,193.062143 Z" id="矩形" fill="url(#linearGradient-2)" transform="translate(72.762416, 211.433548) rotate(-10.000000) translate(-72.762416, -211.433548) "></path>
                <circle id="椭圆形" stroke="#CA4950" stroke-width="3" fill="url(#linearGradient-1)" cx="70" cy="193" r="5"></circle>
                <rect id="矩形" fill="url(#linearGradient-3)" x="68" y="0" width="2" height="43"></rect>
                <circle id="椭圆形" stroke="#CA4950" stroke-width="3" fill="url(#linearGradient-1)" cx="69" cy="48" r="5"></circle>
                <path d="M69,60.5 C81.4750873,60.5 92.7794229,62.1779503 101.021227,64.8801491 C105.359158,66.3024049 108.864638,68.0181632 111.296809,69.9085972 C113.484008,71.6086237 114.820447,73.4689727 115.299873,75.3836639 C117.700333,75.7724145 119.84974,76.9276414 121.464693,78.5859944 C123.343534,80.5153266 124.5,83.123158 124.5,86 L124.5,86 L124.5,158 C124.5,160.843501 123.369672,163.422982 121.533898,165.313721 C119.973773,166.920557 117.904066,168.029706 115.585559,168.381109 C115.126908,170.317196 113.804062,172.198841 111.624112,173.921211 C109.190645,175.843884 105.666964,177.590721 101.296808,179.03927 C93.0013558,181.788914 81.5976167,183.5 69,183.5 C56.5249127,183.5 45.2205771,181.82205 36.9787735,179.119851 C32.6408422,177.697595 29.1353618,175.981837 26.7031909,174.091403 C24.5159922,172.391376 23.1795529,170.531027 22.700127,168.616336 C20.2996671,168.227585 18.1502602,167.072359 16.5353066,165.414006 C14.6564655,163.484673 13.5,160.876842 13.5,158 L13.5,158 L13.5,86 C13.5,83.1005051 14.6752525,80.4755051 16.5753788,78.5753788 C18.1765228,76.9742348 20.2923716,75.8877956 22.6532971,75.5853033 C23.071214,73.6678735 24.343413,71.804314 26.4673442,70.0951062 C28.8584847,68.1708649 32.353592,66.4211271 36.7058532,64.9703733 C44.9706461,62.2154424 56.3869223,60.5 69,60.5 Z" id="形状结合" stroke="#CA4950" stroke-width="3" fill="url(#radialGradient-4)"></path>
                <path d="M69.8297872,71.5 C79.5729327,71.5 88.4723909,72.7627212 95.2536736,74.8581696 C101.566745,76.8089383 106.144051,79.382197 107.27339,82.5149814 C107.395877,82.8547615 107.482935,83.2153535 107.536454,83.5948342 C107.908857,83.5370434 108.29292,83.5068112 108.686493,83.5062883 C110.617127,83.5037231 112.320783,84.2166521 113.543338,85.3918966 C114.764574,86.5658743 115.5,88.1972278 115.5,90 L115.5,90 L115.5,156 C115.5,157.794925 114.772463,159.419925 113.596194,160.596194 C112.419925,161.772463 110.794925,162.5 109,162.5 C108.789235,162.5 108.580805,162.490016 108.375161,162.470459 L108.375161,162.470459 L107.41011,162.378682 L106.930018,163.220857 C105.243977,166.178503 100.554494,168.629615 94.2076765,170.45355 C87.5680764,172.361624 79.0790822,173.5 69.8297872,173.5 C52.5033796,173.5 37.6935295,169.625245 33.2565857,163.997543 L33.2565857,163.997543 L32.7236419,163.321572 L31.8711256,163.440664 C31.5870334,163.48035 31.2958278,163.5 31,163.5 C29.2050746,163.5 27.5800746,162.772463 26.4038059,161.596194 C25.2275373,160.419925 24.5,158.794925 24.5,157 L24.5,157 L24.5,91 C24.5,89.2462284 25.1945227,87.6546505 26.323617,86.4854078 C27.4565411,85.3121993 29.0268497,84.5637877 30.7721219,84.5039027 C31.2729928,84.4867164 31.7633744,84.5270927 32.2364992,84.6191026 C32.1492641,84.1444253 32.1351268,83.6808952 32.2036415,83.2302488 C32.4268115,81.7623781 33.5278976,80.4246118 35.173805,79.1761299 C37.1684001,77.6631554 39.9706475,76.3207286 43.3743246,75.1889183 C50.2699974,72.8959294 59.5833477,71.5 69.8297872,71.5 L69.8297872,71.5 Z" id="形状结合" stroke="url(#linearGradient-5)" stroke-width="3"></path>
            </g>
        </g>
    </g>
</svg>