<?xml version="1.0" encoding="UTF-8"?>
<svg width="144px" height="268px" viewBox="0 0 144 268" version="1.1" xmlns="http://www.w3.org/2000/svg" xmlns:xlink="http://www.w3.org/1999/xlink">
    <title>灯笼1</title>
    <defs>
        <linearGradient x1="50%" y1="0%" x2="50%" y2="100%" id="linearGradient-1">
            <stop stop-color="#F5995D" offset="0%"></stop>
            <stop stop-color="#E96F5B" offset="100%"></stop>
        </linearGradient>
        <linearGradient x1="50%" y1="27.3196509%" x2="50%" y2="113.209982%" id="linearGradient-2">
            <stop stop-color="#E25F52" offset="0%"></stop>
            <stop stop-color="#DE314A" offset="100%"></stop>
        </linearGradient>
        <linearGradient x1="50%" y1="27.3196509%" x2="50%" y2="113.209982%" id="linearGradient-3">
            <stop stop-color="#E25F52" offset="0%"></stop>
            <stop stop-color="#DE314A" offset="100%"></stop>
        </linearGradient>
        <radialGradient cx="50%" cy="50%" fx="50%" fy="50%" r="70.2333138%" gradientTransform="translate(0.500000,0.500000),scale(1.000000,0.900000),rotate(90.000000),scale(1.000000,0.953238),translate(-0.500000,-0.500000)" id="radialGradient-4">
            <stop stop-color="#FB6B60" offset="0%"></stop>
            <stop stop-color="#F8645D" offset="31.6761364%"></stop>
            <stop stop-color="#DE314A" offset="100%"></stop>
        </radialGradient>
        <linearGradient x1="50%" y1="0%" x2="50%" y2="100%" id="linearGradient-5">
            <stop stop-color="#FD8164" offset="0%"></stop>
            <stop stop-color="#F08057" offset="100%"></stop>
        </linearGradient>
    </defs>
    <g id="页面-1" stroke="none" stroke-width="1" fill="none" fill-rule="evenodd">
        <g id="年终盘点01" transform="translate(-501.000000, 0.000000)">
            <g id="头部文字" transform="translate(349.000000, 0.000000)">
                <g id="灯笼1" transform="translate(154.000000, 0.000000)">
                    <path d="M120.290323,89 C125.81317,89 130.290323,93.4771525 130.290323,99 C135.679231,99.1580977 140,103.574464 140,109 L140,209 C140,214.425536 135.679231,218.841902 130.290942,218.995849 L130.290323,219.370968 C130.088346,224.722029 125.688921,229 120.290323,229 L20.2903226,229 C14.891724,229 10.4922991,224.722029 10.2970815,219.37112 L10.2903226,219.370968 L10.2909417,218.995849 C10.1942983,218.99861 10.0973115,219 10,219 C4.4771525,219 3.55271368e-15,214.522847 3.55271368e-15,209 L-3.55271368e-15,109 C-3.55271368e-15,103.477153 4.4771525,99 10,99 C10.0973115,99 10.1942983,99.00139 10.2909417,99.0041511 L10.2903226,99 C10.2903226,93.4771525 14.7674751,89 20.2903226,89 L120.290323,89 Z" id="形状结合" stroke="#CA4950" stroke-width="3" fill="url(#linearGradient-1)"></path>
                    <path d="M73.1967596,229.062143 L77.6442785,229.84636 C74.5324588,236.233339 74.8427918,242.050518 78.5752776,247.297896 C82.3077635,252.545275 84.7033294,258.714294 85.7619756,265.804952 L63.1078444,261.901002 C59.2560238,256.652326 58.7307901,250.418915 61.5321433,243.200768 C63.0841199,239.201845 66.9723253,234.48897 73.1967596,229.062143 Z" id="矩形" fill="url(#linearGradient-2)" transform="translate(72.762416, 247.433548) rotate(-10.000000) translate(-72.762416, -247.433548) "></path>
                    <circle id="椭圆形" stroke="#CA4950" stroke-width="3" fill="url(#linearGradient-1)" cx="70" cy="229" r="5"></circle>
                    <rect id="矩形" fill="url(#linearGradient-3)" x="68" y="0" width="2" height="79"></rect>
                    <circle id="椭圆形" stroke="#CA4950" stroke-width="3" fill="url(#linearGradient-1)" cx="69" cy="84" r="5"></circle>
                    <path d="M69,96.5 C81.4750873,96.5 92.7794229,98.1779503 101.021227,100.880149 C105.359158,102.302405 108.864638,104.018163 111.296809,105.908597 C113.484008,107.608624 114.820447,109.468973 115.299873,111.383664 C117.700333,111.772415 119.84974,112.927641 121.464693,114.585994 C123.343534,116.515327 124.5,119.123158 124.5,122 L124.5,122 L124.5,194 C124.5,196.843501 123.369672,199.422982 121.533898,201.313721 C119.973773,202.920557 117.904066,204.029706 115.585559,204.381109 C115.126908,206.317196 113.804062,208.198841 111.624112,209.921211 C109.190645,211.843884 105.666964,213.590721 101.296808,215.03927 C93.0013558,217.788914 81.5976167,219.5 69,219.5 C56.5249127,219.5 45.2205771,217.82205 36.9787735,215.119851 C32.6408422,213.697595 29.1353618,211.981837 26.7031909,210.091403 C24.5159922,208.391376 23.1795529,206.531027 22.700127,204.616336 C20.2996671,204.227585 18.1502602,203.072359 16.5353066,201.414006 C14.6564655,199.484673 13.5,196.876842 13.5,194 L13.5,194 L13.5,122 C13.5,119.100505 14.6752525,116.475505 16.5753788,114.575379 C18.1765228,112.974235 20.2923716,111.887796 22.6532971,111.585303 C23.071214,109.667874 24.343413,107.804314 26.4673442,106.095106 C28.8584847,104.170865 32.353592,102.421127 36.7058532,100.970373 C44.9706461,98.2154424 56.3869223,96.5 69,96.5 L69,96.5 Z" id="形状结合" stroke="#CA4950" stroke-width="3" fill="url(#radialGradient-4)"></path>
                    <path d="M69.8297872,107.5 C79.5729327,107.5 88.4723909,108.762721 95.2536736,110.85817 C101.566745,112.808938 106.144051,115.382197 107.27339,118.514981 C107.395877,118.854762 107.482935,119.215354 107.536454,119.594834 C107.908857,119.537043 108.29292,119.506811 108.686493,119.506288 C110.617127,119.503723 112.320783,120.216652 113.543338,121.391897 C114.764574,122.565874 115.5,124.197228 115.5,126 L115.5,126 L115.5,192 C115.5,193.794925 114.772463,195.419925 113.596194,196.596194 C112.419925,197.772463 110.794925,198.5 109,198.5 C108.789235,198.5 108.580805,198.490016 108.375161,198.470459 L108.375161,198.470459 L107.41011,198.378682 L106.930018,199.220857 C105.243977,202.178503 100.554494,204.629615 94.2076765,206.45355 C87.5680764,208.361624 79.0790822,209.5 69.8297872,209.5 C52.5033796,209.5 37.6935295,205.625245 33.2565857,199.997543 L33.2565857,199.997543 L32.7236419,199.321572 L31.8711256,199.440664 C31.5870334,199.48035 31.2958278,199.5 31,199.5 C29.2050746,199.5 27.5800746,198.772463 26.4038059,197.596194 C25.2275373,196.419925 24.5,194.794925 24.5,193 L24.5,193 L24.5,127 C24.5,125.246228 25.1945227,123.654651 26.323617,122.485408 C27.4565411,121.312199 29.0268497,120.563788 30.7721219,120.503903 C31.2729928,120.486716 31.7633744,120.527093 32.2364992,120.619103 C32.1492641,120.144425 32.1351268,119.680895 32.2036415,119.230249 C32.4268115,117.762378 33.5278976,116.424612 35.173805,115.17613 C37.1684001,113.663155 39.9706475,112.320729 43.3743246,111.188918 C50.2699974,108.895929 59.5833477,107.5 69.8297872,107.5 Z" id="形状结合" stroke="url(#linearGradient-5)" stroke-width="3"></path>
                </g>
            </g>
        </g>
    </g>
</svg>