<?xml version="1.0" encoding="UTF-8"?>
<svg width="161px" height="81px" viewBox="0 0 161 81" version="1.1" xmlns="http://www.w3.org/2000/svg" xmlns:xlink="http://www.w3.org/1999/xlink">
    <title>云</title>
    <defs>
        <path d="M0,26.5440326 C3.89596391,24.617558 8.7659188,24.617558 14.6098647,26.5440326 C23.3757835,29.4337446 20.4538105,32.3234566 29.2197293,32.3234566 C35.0636752,32.3234566 37.9856481,32.3234566 37.9856481,32.3234566 C36.0376662,40.0293551 38.9596391,42.9190671 46.7515669,40.9925924 C46.7515669,46.7720163 43.829594,67 73.0493233,61.2205761 C80.2876774,59.7888887 81.8152421,67 93.5031338,67 C105.191026,67 105.191026,61.2205761 108.112998,52.5514402 C111.034971,52.5514402 122.722863,55.4411522 122.722863,43.8823044 C122.722863,38.5845949 132.134311,38.0273064 134.410755,35.2131685 C146.098647,20.7646087 132.591366,15.5303901 125.644836,12.0954729 C118.698306,8.6605557 110.768724,-2.4728274 96.4251067,9.20576092 C94.9125274,10.4373046 96.4251067,9.20576092 90.5811609,9.20576092 C84.737215,9.20576092 83.469812,13.0305027 81.8152421,12.0954729 C68.1793684,4.38957433 58.4394586,6.31604897 52.5955128,17.8748968 C46.7515669,12.0954729 41.881612,12.0954729 37.9856481,17.8748968 C32.1417022,26.5440326 26.2977564,23.6543207 17.5318376,20.7646087 C11.6878917,18.8381341 5.84394586,20.7646087 0,26.5440326 Z" id="path-1"></path>
        <filter x="-13.4%" y="-13.5%" width="122.4%" height="139.7%" filterUnits="objectBoundingBox" id="filter-2">
            <feMorphology radius="1.5" operator="dilate" in="SourceAlpha" result="shadowSpreadOuter1"></feMorphology>
            <feOffset dx="0" dy="4" in="shadowSpreadOuter1" result="shadowOffsetOuter1"></feOffset>
            <feGaussianBlur stdDeviation="3" in="shadowOffsetOuter1" result="shadowBlurOuter1"></feGaussianBlur>
            <feComposite in="shadowBlurOuter1" in2="SourceAlpha" operator="out" result="shadowBlurOuter1"></feComposite>
            <feColorMatrix values="0 0 0 0 0.538156703   0 0 0 0 0.119716318   0 0 0 0 0.0592813243  0 0 0 0.5 0" type="matrix" in="shadowBlurOuter1"></feColorMatrix>
        </filter>
        <path d="M94.0191655,22.3060345 C94.9963554,24.2456897 102.813875,36.8534483 94.0191655,42.6724138 C88.1560261,46.5517241 81.3156969,45.5818966 73.4981777,39.762931 C63.7262787,41.7025862 56.8859495,40.7327586 52.9771899,36.8534483 C51.0228101,32.9741379 52,29.0948276 55.9087596,25.2155172 C52,15.5172414 53.9543798,8.72844828 61.771899,4.84913793 C69.5894181,0.969827586 77.4069373,2.90948276 85.2244564,10.6681034 C87.1788362,6.7887931 89.133216,4.84913793 91.0875958,4.84913793 C93.0419756,4.84913793 94.9963554,5.81896552 96.9507352,7.75862069 C100.859495,1.79412041e-13 107.699824,-1.93965517 117.471723,1.93965517 C124.553032,4.75083812 129.198002,13.5775862 123.334862,22.3060345 C117.471723,31.0344828 98.905115,29.0948276 95.9735453,20.3663793 C93.0419756,20.3663793 93.0419756,20.3663793 94.0191655,22.3060345 Z" id="path-3"></path>
        <filter x="-6.1%" y="-5.6%" width="112.2%" height="122.2%" filterUnits="objectBoundingBox" id="filter-4">
            <feOffset dx="0" dy="3" in="SourceAlpha" result="shadowOffsetOuter1"></feOffset>
            <feGaussianBlur stdDeviation="1" in="shadowOffsetOuter1" result="shadowBlurOuter1"></feGaussianBlur>
            <feColorMatrix values="0 0 0 0 0.568727355   0 0 0 0 0.0202544098   0 0 0 0 0.0202544098  0 0 0 0.5 0" type="matrix" in="shadowBlurOuter1"></feColorMatrix>
        </filter>
    </defs>
    <g id="页面-1" stroke="none" stroke-width="1" fill="none" fill-rule="evenodd">
        <g id="年终盘点01" transform="translate(-80.000000, -94.000000)">
            <g id="云" transform="translate(94.000000, 96.000000)">
                <g id="路径-2">
                    <use fill="black" fill-opacity="1" filter="url(#filter-2)" xlink:href="#path-1"></use>
                    <use stroke="#FFD388" stroke-width="3" fill="#C52B17" fill-rule="evenodd" xlink:href="#path-1"></use>
                </g>
                <g id="路径">
                    <use fill="black" fill-opacity="1" filter="url(#filter-4)" xlink:href="#path-3"></use>
                    <use fill="#C52B17" fill-rule="evenodd" xlink:href="#path-3"></use>
                </g>
                <path d="M82.2928868,33.9439655 C76.4297474,32.0043103 74.4753676,28.125 76.4297474,22.3060345 C79.3613171,13.5775862 91.0875958,16.487069 94.0191655,22.3060345 C96.9507352,28.125 102.813875,36.8534483 94.0191655,42.6724138 C88.1560261,46.5517241 81.3156969,45.5818966 73.4981777,39.762931 C63.7262787,41.7025862 56.8859495,40.7327586 52.9771899,36.8534483 C51.0228101,32.9741379 52,29.0948276 55.9087596,25.2155172 C52,15.5172414 53.9543798,8.72844828 61.771899,4.84913793 C69.5894181,0.969827586 77.4069373,2.90948276 85.2244564,10.6681034 C87.1788362,6.7887931 89.133216,4.84913793 91.0875958,4.84913793 C93.0419756,4.84913793 94.9963554,5.81896552 96.9507352,7.75862069 C100.859495,1.80300219e-13 107.699824,-1.93965517 117.471723,1.93965517 C124.553032,4.75083812 129.198002,13.5775862 123.334862,22.3060345 C117.471723,31.0344828 91.0875958,31.0344828 96.9507352,13.5775862 C102.813875,4.84913793 114.540153,13.5775862 105.745444,19.3965517" id="路径" stroke="#FFD388" stroke-width="3"></path>
            </g>
        </g>
    </g>
</svg>