<?xml version="1.0" encoding="UTF-8"?>
<svg width="50px" height="50px" viewBox="0 0 50 50" version="1.1" xmlns="http://www.w3.org/2000/svg" xmlns:xlink="http://www.w3.org/1999/xlink">
    <!-- Generator: Sketch 53 (72520) - https://sketchapp.com -->
    <title>cuansuo02</title>
    <desc>Created with Sketch.</desc>
    <g id="Page-1" stroke="none" stroke-width="1" fill="none" fill-rule="evenodd">
        <g id="公文处理-个人配置" transform="translate(-1025.000000, -374.000000)">
            <g id="表单" transform="translate(200.000000, 80.000000)">
                <g id="各单位人员统计表">
                    <g id="分组-5" transform="translate(825.000000, 294.000000)">
                        <g id="cuansuo02">
                            <rect id="矩形" stroke="#0071FE" fill="#FFFFFF" x="0.5" y="0.5" width="49" height="49" rx="24.5"></rect>
                            <path d="M30.6597237,26.098236 C30.7324363,26.0220279 30.7709313,25.9287571 30.8205562,25.8415111 C30.8342617,25.8149739 30.8564756,25.79276 30.8684794,25.7653491 C31.1037722,25.2759529 31.0267363,24.6770968 30.6100988,24.283501 L21.165594,15.3506522 C20.6505345,14.8638316 19.8386455,14.8869194 19.350951,15.401151 C18.8641303,15.9162104 18.8863902,16.7280995 19.4014497,17.215794 L27.8757626,25.2323529 L19.4347936,33.3678459 C18.9248851,33.8597716 18.9094779,34.6717067 19.4014497,35.1824889 C19.6529775,35.4442729 19.9892218,35.5752108 20.3254661,35.5752108 C20.6463032,35.5752108 20.9671404,35.4554488 21.2160927,35.2158788 L30.5750532,26.1957381 C30.5930359,26.1777554 30.5998427,26.1529659 30.6178254,26.1341554 C30.6315308,26.1213237 30.6460642,26.1118955 30.6597237,26.098236 Z" id="二级" fill="#0071FE" fill-rule="nonzero" transform="translate(25.000000, 25.287605) scale(-1, 1) translate(-25.000000, -25.287605) "></path>
                        </g>
                    </g>
                </g>
            </g>
        </g>
    </g>
</svg>